# Created by FreeCAD <http://www.freecadweb.org>
v 31.537203 -1.000000 11.500000
v 31.537203 -1.000000 10.000000
v 31.537203 -3.000000 10.000000
v 31.537203 -3.000000 11.500000
v 32.236664 -1.000000 11.500000
v 32.236664 -3.000000 11.500000
v 35.593063 -1.000000 7.500000
v 35.593063 -3.000000 7.500000
v 35.944141 -1.000000 7.500000
v 35.944141 -3.000000 7.500000
v 46.314579 -1.000000 19.859007
v 46.314579 -3.000000 19.859007
v 51.676891 -1.000000 15.359494
v 51.676891 -3.000000 15.359494
v 43.365231 -1.000000 5.454045
v 43.365231 -3.000000 5.454045
v 43.365231 -1.000000 4.545955
v 43.365231 -3.000000 4.545955
v 51.676891 -1.000000 -5.359494
v 51.676891 -3.000000 -5.359494
v 46.314579 -1.000000 -9.859008
v 46.314579 -3.000000 -9.859008
v 35.944141 -1.000000 2.500000
v 35.944141 -3.000000 2.500000
v 35.593063 -1.000000 2.500000
v 35.593063 -3.000000 2.500000
v 32.236664 -1.000000 -1.500000
v 32.236664 -3.000000 -1.500000
v 31.537203 -1.000000 -1.500000
v 31.537203 -3.000000 -1.500000
v 31.537203 -1.000000 0.000000
v 31.537203 -3.000000 0.000000
v 34.893600 -1.000000 4.000000
v 34.893600 -3.000000 4.000000
v 36.643600 -1.000000 4.000000
v 36.643600 -3.000000 4.000000
v 46.499462 -1.000000 -7.745759
v 46.499462 -3.000000 -7.745759
v 49.563641 -1.000000 -5.174609
v 49.563641 -3.000000 -5.174609
v 41.865231 -1.000000 4.000000
v 41.865231 -3.000000 4.000000
v 41.865231 -1.000000 6.000000
v 41.865231 -3.000000 6.000000
v 49.563641 -1.000000 15.174609
v 49.563641 -3.000000 15.174609
v 46.499462 -1.000000 17.745760
v 46.499462 -3.000000 17.745760
v 36.643600 -1.000000 6.000000
v 36.643600 -3.000000 6.000000
v 34.893600 -1.000000 6.000000
v 34.893600 -3.000000 6.000000
v -3.356399 0.000000 4.000000
v 0.000000 0.000000 0.000000
v 0.000000 -1.000000 0.000000
v -3.356399 -1.000000 4.000000
v 31.537203 0.000000 0.000000
v 31.537203 -1.000000 0.000000
v 34.893600 0.000000 4.000000
v 34.893600 -1.000000 4.000000
v 36.643600 0.000000 4.000000
v 36.643600 -1.000000 4.000000
v 46.499462 -0.000000 -7.745759
v 46.499462 -1.000000 -7.745759
v 49.563641 -0.000000 -5.174609
v 49.563641 -1.000000 -5.174609
v 41.865231 0.000000 4.000000
v 41.865231 -1.000000 4.000000
v 41.865231 0.000000 6.000000
v 41.865231 -1.000000 6.000000
v 49.563641 0.000000 15.174609
v 49.563641 -1.000000 15.174609
v 46.499462 0.000000 17.745760
v 46.499462 -1.000000 17.745760
v 36.643600 0.000000 6.000000
v 36.643600 -1.000000 6.000000
v 34.893600 0.000000 6.000000
v 34.893600 -1.000000 6.000000
v 31.537203 0.000000 10.000000
v 31.537203 -1.000000 10.000000
v 0.000000 0.000000 10.000000
v 0.000000 -1.000000 10.000000
v -3.356399 0.000000 6.000000
v -3.356399 -1.000000 6.000000
v -5.106399 0.000000 6.000000
v -5.106399 -1.000000 6.000000
v -14.962261 0.000000 17.745760
v -14.962261 -1.000000 17.745760
v -18.026440 0.000000 15.174609
v -18.026440 -1.000000 15.174609
v -10.328028 0.000000 6.000000
v -10.328028 -1.000000 6.000000
v -10.328028 0.000000 4.000000
v -10.328028 -1.000000 4.000000
v -18.026440 -0.000000 -5.174609
v -18.026440 -1.000000 -5.174609
v -14.962261 -0.000000 -7.745759
v -14.962261 -1.000000 -7.745759
v -5.106399 0.000000 4.000000
v -5.106399 -1.000000 4.000000
v -3.356399 -1.000000 6.000000
v 0.000000 -1.000000 10.000000
v 0.000000 -3.000000 10.000000
v -3.356399 -3.000000 6.000000
v -5.106399 -1.000000 6.000000
v -5.106399 -3.000000 6.000000
v -14.962261 -1.000000 17.745760
v -14.962261 -3.000000 17.745760
v -18.026440 -1.000000 15.174609
v -18.026440 -3.000000 15.174609
v -10.328028 -1.000000 6.000000
v -10.328028 -3.000000 6.000000
v -10.328028 -1.000000 4.000000
v -10.328028 -3.000000 4.000000
v -18.026440 -1.000000 -5.174609
v -18.026440 -3.000000 -5.174609
v -14.962261 -1.000000 -7.745759
v -14.962261 -3.000000 -7.745759
v -5.106399 -1.000000 4.000000
v -5.106399 -3.000000 4.000000
v -3.356399 -1.000000 4.000000
v -3.356399 -3.000000 4.000000
v 0.000000 -1.000000 0.000000
v 0.000000 -3.000000 0.000000
v 0.000000 -1.000000 -1.500000
v 0.000000 -3.000000 -1.500000
v -0.699461 -1.000000 -1.500000
v -0.699461 -3.000000 -1.500000
v -4.055860 -1.000000 2.500000
v -4.055860 -3.000000 2.500000
v -4.406937 -1.000000 2.500000
v -4.406937 -3.000000 2.500000
v -14.777375 -3.000000 -9.859008
v -14.777375 -1.000000 -9.859008
v -20.139687 -1.000000 -5.359494
v -20.139687 -3.000000 -5.359494
v -11.828028 -1.000000 4.545955
v -11.828028 -3.000000 4.545955
v -11.828028 -1.000000 5.454045
v -11.828028 -3.000000 5.454045
v -20.139687 -1.000000 15.359494
v -20.139687 -3.000000 15.359494
v -14.777375 -1.000000 19.859007
v -14.777375 -3.000000 19.859007
v -4.406937 -3.000000 7.500000
v -4.406937 -1.000000 7.500000
v -4.055860 -1.000000 7.500000
v -4.055860 -3.000000 7.500000
v -0.699461 -1.000000 11.500000
v -0.699461 -3.000000 11.500000
v 0.000000 -1.000000 11.500000
v 0.000000 -3.000000 11.500000
vn -1.000000 0.000000 -0.000000
vn -1.000000 -0.000000 0.000000
vn 0.000000 0.000000 1.000000
vn 0.000000 0.000000 1.000000
vn 0.766044 0.000000 0.642788
vn 0.766044 0.000000 0.642788
vn 0.000000 0.000000 1.000000
vn 0.000000 0.000000 1.000000
vn -0.766044 0.000000 0.642788
vn -0.766044 0.000000 0.642788
vn 0.642787 0.000000 0.766045
vn 0.642787 0.000000 0.766045
vn 0.766044 0.000000 -0.642788
vn 0.766044 0.000000 -0.642788
vn 1.000000 0.000000 -0.000000
vn 1.000000 0.000000 0.000000
vn 0.766044 0.000000 0.642788
vn 0.766044 0.000000 0.642788
vn 0.642788 0.000000 -0.766044
vn 0.642788 0.000000 -0.766044
vn -0.766044 0.000000 -0.642788
vn -0.766044 -0.000000 -0.642788
vn 0.000000 0.000000 -1.000000
vn 0.000000 0.000000 -1.000000
vn 0.766044 0.000000 -0.642788
vn 0.766044 0.000000 -0.642788
vn 0.000000 0.000000 -1.000000
vn 0.000000 0.000000 -1.000000
vn -1.000000 -0.000000 -0.000000
vn -1.000000 0.000000 0.000000
vn -0.766044 0.000000 0.642788
vn -0.766044 0.000000 0.642788
vn 0.000000 0.000000 1.000000
vn 0.000000 0.000000 1.000000
vn 0.766044 0.000000 0.642788
vn 0.766044 0.000000 0.642788
vn -0.642788 0.000000 0.766044
vn -0.642788 0.000000 0.766044
vn -0.766044 -0.000000 -0.642788
vn -0.766044 0.000000 -0.642788
vn -1.000000 -0.000000 -0.000000
vn -1.000000 0.000000 0.000000
vn -0.766044 0.000000 0.642788
vn -0.766044 0.000000 0.642788
vn -0.642788 -0.000000 -0.766044
vn -0.642788 0.000000 -0.766044
vn 0.766044 0.000000 -0.642788
vn 0.766044 0.000000 -0.642788
vn 0.000000 0.000000 -1.000000
vn 0.000000 0.000000 -1.000000
vn -0.766044 -0.000000 -0.642788
vn -0.766044 0.000000 -0.642788
vn 0.000000 1.000000 0.000000
vn 0.000000 1.000000 0.000000
vn 0.000000 1.000000 0.000000
vn 0.000000 1.000000 0.000000
vn 0.000000 1.000000 0.000000
vn 0.000000 1.000000 0.000000
vn 0.000000 1.000000 0.000000
vn 0.000000 1.000000 0.000000
vn 0.000000 1.000000 0.000000
vn 0.000000 1.000000 0.000000
vn 0.000000 1.000000 0.000000
vn 0.000000 1.000000 0.000000
vn 0.000000 1.000000 0.000000
vn 0.000000 1.000000 0.000000
vn 0.000000 1.000000 0.000000
vn 0.000000 1.000000 0.000000
vn 0.000000 1.000000 0.000000
vn 0.000000 1.000000 0.000000
vn 0.000000 1.000000 0.000000
vn 0.000000 1.000000 0.000000
vn 0.000000 1.000000 0.000000
vn 0.000000 1.000000 -0.000000
vn 0.000000 1.000000 0.000000
vn 0.000000 1.000000 0.000000
vn 0.000000 -1.000000 0.000000
vn 0.000000 -1.000000 0.000000
vn -0.000000 -1.000000 0.000000
vn 0.000000 -1.000000 0.000000
vn 0.000000 -1.000000 0.000000
vn 0.000000 -1.000000 0.000000
vn 0.000000 -1.000000 0.000000
vn 0.000000 -1.000000 0.000000
vn 0.000000 -1.000000 0.000000
vn 0.000000 -1.000000 0.000000
vn 0.000000 -1.000000 0.000000
vn 0.000000 -1.000000 0.000000
vn 0.000000 -1.000000 0.000000
vn 0.000000 -1.000000 0.000000
vn 0.000000 -1.000000 0.000000
vn 0.000000 -1.000000 0.000000
vn 0.000000 -1.000000 0.000000
vn 0.000000 -1.000000 0.000000
vn 0.000000 -1.000000 0.000000
vn 0.000000 -1.000000 0.000000
vn 0.000000 -1.000000 -0.000000
vn 0.000000 -1.000000 0.000000
vn 0.000000 -1.000000 0.000000
vn 0.000000 -1.000000 0.000000
vn -0.766044 0.000000 -0.642788
vn -0.766044 -0.000000 -0.642788
vn 0.000000 0.000000 -1.000000
vn 0.000000 0.000000 -1.000000
vn 0.766044 0.000000 -0.642788
vn 0.766044 0.000000 -0.642788
vn 0.000000 0.000000 -1.000000
vn 0.000000 0.000000 -1.000000
vn -0.766044 -0.000000 -0.642788
vn -0.766044 0.000000 -0.642788
vn 0.642788 0.000000 -0.766044
vn 0.642788 0.000000 -0.766044
vn 0.766044 0.000000 0.642788
vn 0.766044 0.000000 0.642788
vn 1.000000 0.000000 -0.000000
vn 1.000000 0.000000 0.000000
vn 0.766044 0.000000 -0.642788
vn 0.766044 0.000000 -0.642788
vn 0.642788 0.000000 0.766044
vn 0.642788 0.000000 0.766044
vn -0.766044 0.000000 0.642788
vn -0.766044 0.000000 0.642788
vn 0.000000 0.000000 1.000000
vn 0.000000 0.000000 1.000000
vn 0.766044 0.000000 0.642788
vn 0.766044 0.000000 0.642788
vn 0.000000 0.000000 1.000000
vn 0.000000 0.000000 1.000000
vn -0.766044 0.000000 0.642788
vn -0.766044 0.000000 0.642788
vn 0.000000 0.000000 1.000000
vn 0.000000 0.000000 1.000000
vn 0.766044 0.000000 0.642788
vn 0.766044 0.000000 0.642788
vn -0.642788 0.000000 0.766044
vn -0.642788 0.000000 0.766044
vn -0.766044 -0.000000 -0.642788
vn -0.766044 0.000000 -0.642788
vn -1.000000 0.000000 -0.000000
vn -1.000000 -0.000000 0.000000
vn -0.766044 0.000000 0.642788
vn -0.766044 0.000000 0.642788
vn -0.642788 -0.000000 -0.766044
vn -0.642788 0.000000 -0.766044
vn 0.766044 0.000000 -0.642788
vn 0.766044 0.000000 -0.642788
vn 0.000000 0.000000 -1.000000
vn 0.000000 0.000000 -1.000000
vn 0.000000 1.000000 -0.000000
vn 0.000000 1.000000 -0.000000
vn 0.000000 1.000000 0.000000
vn 0.000000 1.000000 0.000000
vn 0.000000 1.000000 0.000000
vn 0.000000 1.000000 0.000000
vn 0.000000 1.000000 0.000000
vn -0.000000 1.000000 -0.000000
vn 0.000000 1.000000 -0.000000
vn -0.000000 1.000000 -0.000000
vn 0.000000 1.000000 -0.000000
vn -0.000000 1.000000 -0.000000
vn 0.000000 1.000000 0.000000
vn 0.000000 1.000000 -0.000000
vn 0.000000 1.000000 0.000000
vn 0.000000 1.000000 0.000000
vn 0.000000 1.000000 -0.000000
vn -0.000000 1.000000 -0.000000
vn 0.000000 1.000000 0.000000
vn 0.000000 1.000000 0.000000
vn 0.000000 1.000000 -0.000000
vn 0.000000 1.000000 -0.000000
vn 0.000000 -1.000000 0.000000
vn 0.000000 -1.000000 0.000000
vn 0.000000 -1.000000 0.000000
vn 0.000000 -1.000000 0.000000
vn 0.000000 -1.000000 0.000000
vn 0.000000 -1.000000 0.000000
vn 0.000000 -1.000000 0.000000
vn 0.000000 -1.000000 0.000000
vn 0.000000 -1.000000 0.000000
vn 0.000000 -1.000000 0.000000
vn -0.000000 -1.000000 0.000000
vn -0.000000 -1.000000 0.000000
vn -0.000000 -1.000000 -0.000000
vn 0.000000 -1.000000 0.000000
vn 0.000000 -1.000000 0.000000
vn 0.000000 -1.000000 0.000000
vn 0.000000 -1.000000 0.000000
vn -0.000000 -1.000000 0.000000
vn 0.000000 -1.000000 0.000000
vn 0.000000 -1.000000 0.000000
vn 0.000000 -1.000000 0.000000
vn 0.000000 -1.000000 0.000000
vn 0.766044 0.000000 -0.642788
vn 0.766044 0.000000 -0.642788
vn 0.000000 0.000000 -1.000000
vn 0.000000 0.000000 -1.000000
vn -0.766044 0.000000 -0.642788
vn -0.766044 -0.000000 -0.642788
vn 0.642788 0.000000 -0.766044
vn 0.642788 0.000000 -0.766044
vn 0.766044 0.000000 0.642788
vn 0.766044 0.000000 0.642788
vn 1.000000 0.000000 -0.000000
vn 1.000000 0.000000 0.000000
vn 0.766044 0.000000 -0.642788
vn 0.766044 0.000000 -0.642788
vn 0.642788 0.000000 0.766044
vn 0.642788 0.000000 0.766044
vn -0.766044 0.000000 0.642788
vn -0.766044 0.000000 0.642788
vn 0.000000 0.000000 1.000000
vn 0.000000 0.000000 1.000000
vn 0.766044 0.000000 0.642788
vn 0.766044 0.000000 0.642788
vn 1.000000 0.000000 -0.000000
vn 1.000000 0.000000 0.000000
vn 0.000000 0.000000 -1.000000
vn 0.000000 0.000000 -1.000000
vn -0.766044 0.000000 -0.642788
vn -0.766044 -0.000000 -0.642788
vn 0.000000 0.000000 -1.000000
vn 0.000000 0.000000 -1.000000
vn 0.766044 0.000000 -0.642788
vn 0.766044 0.000000 -0.642788
vn -0.642788 0.000000 -0.766044
vn -0.642788 -0.000000 -0.766044
vn -0.766044 0.000000 0.642788
vn -0.766044 0.000000 0.642788
vn -1.000000 0.000000 -0.000000
vn -1.000000 -0.000000 0.000000
vn -0.766044 0.000000 -0.642788
vn -0.766044 -0.000000 -0.642788
vn -0.642788 0.000000 0.766044
vn -0.642788 0.000000 0.766044
vn 0.766044 0.000000 0.642788
vn 0.766044 0.000000 0.642788
vn 0.000000 0.000000 1.000000
vn 0.000000 0.000000 1.000000
vn -0.766044 0.000000 0.642788
vn -0.766044 0.000000 0.642788
vn 0.000000 0.000000 1.000000
vn 0.000000 0.000000 1.000000
vn 1.000000 0.000000 -0.000000
vn 1.000000 0.000000 0.000000
vn 0.000000 1.000000 0.000000
vn 0.000000 1.000000 0.000000
vn 0.000000 1.000000 0.000000
vn 0.000000 1.000000 0.000000
vn 0.000000 1.000000 0.000000
vn 0.000000 1.000000 0.000000
vn 0.000000 1.000000 0.000000
vn 0.000000 1.000000 0.000000
vn 0.000000 1.000000 0.000000
vn 0.000000 1.000000 0.000000
vn 0.000000 1.000000 0.000000
vn 0.000000 1.000000 0.000000
vn 0.000000 1.000000 0.000000
vn 0.000000 1.000000 0.000000
vn 0.000000 1.000000 0.000000
vn 0.000000 1.000000 0.000000
vn 0.000000 1.000000 0.000000
vn 0.000000 1.000000 0.000000
vn 0.000000 1.000000 0.000000
vn 0.000000 1.000000 0.000000
vn 0.000000 1.000000 -0.000000
vn 0.000000 1.000000 0.000000
vn 0.000000 1.000000 0.000000
vn 0.000000 1.000000 0.000000
vn 0.000000 -1.000000 0.000000
vn 0.000000 -1.000000 0.000000
vn -0.000000 -1.000000 0.000000
vn 0.000000 -1.000000 0.000000
vn 0.000000 -1.000000 0.000000
vn 0.000000 -1.000000 0.000000
vn 0.000000 -1.000000 0.000000
vn -0.000000 -1.000000 0.000000
vn 0.000000 -1.000000 0.000000
vn 0.000000 -1.000000 0.000000
vn 0.000000 -1.000000 0.000000
vn 0.000000 -1.000000 0.000000
vn 0.000000 -1.000000 0.000000
vn 0.000000 -1.000000 0.000000
vn 0.000000 -1.000000 0.000000
vn 0.000000 -1.000000 0.000000
vn -0.000000 -1.000000 0.000000
vn 0.000000 -1.000000 0.000000
vn -0.000000 -1.000000 0.000000
vn 0.000000 -1.000000 0.000000
vn 0.000000 -1.000000 0.000000
vn 0.000000 -1.000000 -0.000000
vn 0.000000 -1.000000 0.000000
vn 0.000000 -1.000000 0.000000
g Extrude002
f 1//1 2//1 3//1
f 1//2 3//2 4//2
f 5//3 1//3 4//3
f 5//4 4//4 6//4
f 7//5 5//5 6//5
f 7//6 6//6 8//6
f 9//7 7//7 8//7
f 9//8 8//8 10//8
f 11//9 9//9 10//9
f 11//10 10//10 12//10
f 13//11 11//11 12//11
f 13//12 12//12 14//12
f 15//13 13//13 14//13
f 15//14 14//14 16//14
f 17//15 15//15 16//15
f 17//16 16//16 18//16
f 19//17 17//17 18//17
f 19//18 18//18 20//18
f 21//19 19//19 20//19
f 21//20 20//20 22//20
f 23//21 21//21 22//21
f 23//22 22//22 24//22
f 25//23 23//23 24//23
f 25//24 24//24 26//24
f 27//25 25//25 26//25
f 27//26 26//26 28//26
f 29//27 27//27 30//27
f 30//28 27//28 28//28
f 31//29 29//29 32//29
f 32//30 29//30 30//30
f 33//31 31//31 34//31
f 34//32 31//32 32//32
f 35//33 33//33 36//33
f 36//34 33//34 34//34
f 37//35 35//35 38//35
f 38//36 35//36 36//36
f 39//37 37//37 40//37
f 40//38 37//38 38//38
f 41//39 39//39 42//39
f 42//40 39//40 40//40
f 43//41 41//41 44//41
f 44//42 41//42 42//42
f 45//43 43//43 46//43
f 46//44 43//44 44//44
f 47//45 45//45 48//45
f 48//46 45//46 46//46
f 49//47 47//47 50//47
f 50//48 47//48 48//48
f 51//49 49//49 50//49
f 51//50 50//50 52//50
f 2//51 51//51 3//51
f 3//52 51//52 52//52
f 31//53 27//53 29//53
f 25//54 27//54 31//54
f 33//55 25//55 31//55
f 35//56 23//56 25//56
f 35//57 25//57 33//57
f 7//58 51//58 2//58
f 9//59 49//59 51//59
f 9//60 51//60 7//60
f 5//61 2//61 1//61
f 5//62 7//62 2//62
f 39//63 21//63 37//63
f 19//64 21//64 39//64
f 17//65 39//65 41//65
f 17//66 41//66 43//66
f 17//67 19//67 39//67
f 15//68 17//68 43//68
f 45//69 15//69 43//69
f 13//70 45//70 47//70
f 13//71 15//71 45//71
f 13//72 47//72 11//72
f 9//73 11//73 47//73
f 21//74 23//74 37//74
f 35//75 37//75 23//75
f 47//76 49//76 9//76
f 28//77 32//77 30//77
f 28//78 26//78 32//78
f 26//79 34//79 32//79
f 24//80 36//80 26//80
f 26//81 36//81 34//81
f 52//82 8//82 3//82
f 50//83 10//83 52//83
f 52//84 10//84 8//84
f 3//85 6//85 4//85
f 8//86 6//86 3//86
f 22//87 40//87 38//87
f 22//88 20//88 40//88
f 40//89 18//89 42//89
f 42//90 18//90 44//90
f 20//91 18//91 40//91
f 18//92 16//92 44//92
f 16//93 46//93 44//93
f 46//94 14//94 48//94
f 16//95 14//95 46//95
f 48//96 14//96 12//96
f 12//97 10//97 48//97
f 24//98 22//98 38//98
f 38//99 36//99 24//99
f 50//100 48//100 10//100
g Extrude
f 53//101 54//101 55//101
f 53//102 55//102 56//102
f 54//103 57//103 55//103
f 55//104 57//104 58//104
f 57//105 59//105 58//105
f 58//106 59//106 60//106
f 59//107 61//107 60//107
f 60//108 61//108 62//108
f 61//109 63//109 62//109
f 62//110 63//110 64//110
f 63//111 65//111 64//111
f 64//112 65//112 66//112
f 65//113 67//113 66//113
f 66//114 67//114 68//114
f 67//115 69//115 70//115
f 67//116 70//116 68//116
f 69//117 71//117 72//117
f 69//118 72//118 70//118
f 71//119 73//119 72//119
f 72//120 73//120 74//120
f 73//121 75//121 74//121
f 74//122 75//122 76//122
f 75//123 77//123 78//123
f 75//124 78//124 76//124
f 77//125 79//125 80//125
f 77//126 80//126 78//126
f 79//127 81//127 82//127
f 79//128 82//128 80//128
f 81//129 83//129 84//129
f 81//130 84//130 82//130
f 83//131 85//131 84//131
f 84//132 85//132 86//132
f 85//133 87//133 86//133
f 86//134 87//134 88//134
f 87//135 89//135 90//135
f 87//136 90//136 88//136
f 89//137 91//137 90//137
f 90//138 91//138 92//138
f 91//139 93//139 94//139
f 91//140 94//140 92//140
f 93//141 95//141 96//141
f 93//142 96//142 94//142
f 95//143 97//143 96//143
f 96//144 97//144 98//144
f 97//145 99//145 100//145
f 97//146 100//146 98//146
f 99//147 53//147 56//147
f 99//148 56//148 100//148
f 93//149 97//149 95//149
f 99//150 97//150 93//150
f 85//151 93//151 91//151
f 85//152 99//152 93//152
f 83//153 54//153 53//153
f 83//154 53//154 99//154
f 83//155 99//155 85//155
f 87//156 91//156 89//156
f 87//157 85//157 91//157
f 81//158 54//158 83//158
f 79//159 57//159 54//159
f 79//160 59//160 57//160
f 79//161 77//161 59//161
f 79//162 54//162 81//162
f 75//163 61//163 59//163
f 75//164 59//164 77//164
f 67//165 63//165 61//165
f 67//166 65//166 63//166
f 69//167 67//167 61//167
f 69//168 61//168 75//168
f 73//169 69//169 75//169
f 71//170 69//170 73//170
f 98//171 94//171 96//171
f 98//172 100//172 94//172
f 94//173 86//173 92//173
f 100//174 86//174 94//174
f 55//175 84//175 56//175
f 56//176 84//176 100//176
f 100//177 84//177 86//177
f 92//178 88//178 90//178
f 86//179 88//179 92//179
f 55//180 82//180 84//180
f 58//181 80//181 55//181
f 60//182 80//182 58//182
f 78//183 80//183 60//183
f 55//184 80//184 82//184
f 62//185 76//185 60//185
f 60//186 76//186 78//186
f 64//187 68//187 62//187
f 66//188 68//188 64//188
f 68//189 70//189 62//189
f 62//190 70//190 76//190
f 70//191 74//191 76//191
f 70//192 72//192 74//192
g Extrude001
f 101//193 102//193 103//193
f 101//194 103//194 104//194
f 105//195 101//195 104//195
f 105//196 104//196 106//196
f 107//197 105//197 106//197
f 107//198 106//198 108//198
f 109//199 107//199 108//199
f 109//200 108//200 110//200
f 111//201 109//201 110//201
f 111//202 110//202 112//202
f 113//203 111//203 112//203
f 113//204 112//204 114//204
f 115//205 113//205 114//205
f 115//206 114//206 116//206
f 117//207 115//207 116//207
f 117//208 116//208 118//208
f 119//209 117//209 118//209
f 119//210 118//210 120//210
f 121//211 119//211 120//211
f 121//212 120//212 122//212
f 123//213 121//213 122//213
f 123//214 122//214 124//214
f 125//215 123//215 124//215
f 125//216 124//216 126//216
f 127//217 125//217 126//217
f 127//218 126//218 128//218
f 129//219 127//219 128//219
f 129//220 128//220 130//220
f 131//221 129//221 130//221
f 131//222 130//222 132//222
f 133//223 131//223 132//223
f 134//224 131//224 133//224
f 135//225 134//225 133//225
f 135//226 133//226 136//226
f 137//227 135//227 136//227
f 137//228 136//228 138//228
f 139//229 137//229 138//229
f 139//230 138//230 140//230
f 141//231 139//231 140//231
f 141//232 140//232 142//232
f 143//233 141//233 142//233
f 143//234 142//234 144//234
f 145//235 143//235 144//235
f 146//236 143//236 145//236
f 147//237 146//237 145//237
f 147//238 145//238 148//238
f 149//239 147//239 148//239
f 149//240 148//240 150//240
f 151//241 149//241 150//241
f 151//242 150//242 152//242
f 102//243 151//243 103//243
f 103//244 151//244 152//244
f 115//245 134//245 135//245
f 117//246 134//246 115//246
f 137//247 115//247 135//247
f 113//248 137//248 139//248
f 113//249 115//249 137//249
f 111//250 113//250 139//250
f 109//251 139//251 141//251
f 109//252 111//252 139//252
f 119//253 129//253 131//253
f 123//254 125//254 127//254
f 123//255 127//255 129//255
f 121//256 123//256 129//256
f 121//257 129//257 119//257
f 107//258 109//258 141//258
f 147//259 101//259 105//259
f 147//260 105//260 146//260
f 143//261 107//261 141//261
f 102//262 101//262 147//262
f 149//263 102//263 147//263
f 151//264 102//264 149//264
f 105//265 107//265 146//265
f 117//266 119//266 131//266
f 131//267 134//267 117//267
f 143//268 146//268 107//268
f 133//269 116//269 136//269
f 133//270 118//270 116//270
f 116//271 138//271 136//271
f 138//272 114//272 140//272
f 116//273 114//273 138//273
f 114//274 112//274 140//274
f 140//275 110//275 142//275
f 112//276 110//276 140//276
f 130//277 120//277 132//277
f 126//278 124//278 128//278
f 128//279 124//279 130//279
f 124//280 122//280 130//280
f 130//281 122//281 120//281
f 110//282 108//282 142//282
f 104//283 148//283 106//283
f 106//284 148//284 145//284
f 108//285 144//285 142//285
f 104//286 103//286 148//286
f 103//287 150//287 148//287
f 103//288 152//288 150//288
f 108//289 106//289 145//289
f 120//290 118//290 132//290
f 133//291 132//291 118//291
f 145//292 144//292 108//292
g Sketch
