# Created by FreeCAD <http://www.freecadweb.org>
v -3.356399 0.000000 4.000000
v 0.000000 0.000000 0.000000
v 0.000000 -1.000000 0.000000
v -3.356399 -1.000000 4.000000
v 31.537203 -0.000000 -0.000000
v 31.537203 -1.000000 0.000000
v 34.893600 0.000000 4.000000
v 34.893600 -1.000000 4.000000
v 36.643600 0.000000 4.000000
v 36.643600 -1.000000 4.000000
v 50.784927 -1.000000 -12.852978
v 50.784927 -0.000000 -12.852978
v 53.849106 -0.000000 -10.281827
v 53.849106 -1.000000 -10.281827
v 41.865231 0.000000 4.000000
v 41.865231 -1.000000 4.000000
v 41.865231 0.000000 6.000000
v 41.865231 -1.000000 6.000000
v 53.849106 0.000000 20.281828
v 53.849106 -1.000000 20.281828
v 50.784927 0.000000 22.852978
v 50.784927 -1.000000 22.852978
v 36.643600 -1.000000 6.000000
v 36.643600 0.000000 6.000000
v 34.893600 0.000000 6.000000
v 34.893600 -1.000000 6.000000
v 31.537203 0.000000 10.000000
v 31.537203 -1.000000 10.000000
v -0.000000 0.000000 10.000000
v -0.000000 -1.000000 10.000000
v -3.356399 0.000000 6.000000
v -3.356399 -1.000000 6.000000
v -5.106399 0.000000 6.000000
v -5.106399 -1.000000 6.000000
v -19.247726 -1.000000 22.852978
v -19.247726 0.000000 22.852978
v -22.311903 0.000000 20.281828
v -22.311903 -1.000000 20.281828
v -10.328028 0.000000 6.000000
v -10.328028 -1.000000 6.000000
v -10.328028 0.000000 4.000000
v -10.328028 -1.000000 4.000000
v -22.311903 -0.000000 -10.281827
v -22.311903 -1.000000 -10.281827
v -19.247726 -0.000000 -12.852978
v -19.247726 -1.000000 -12.852978
v -5.106399 0.000000 4.000000
v -5.106399 -1.000000 4.000000
v 31.537203 -1.000000 11.500000
v 31.537203 -1.000000 10.000000
v 31.537203 -3.000000 10.000000
v 31.537203 -3.000000 11.500000
v 32.236664 -1.000000 11.500000
v 32.236664 -3.000000 11.500000
v 35.593063 -1.000000 7.500000
v 35.593063 -3.000000 7.500000
v 35.944141 -1.000000 7.500000
v 35.944141 -3.000000 7.500000
v 50.600044 -1.000000 24.966227
v 50.600044 -3.000000 24.966227
v 55.962357 -1.000000 20.466713
v 55.962357 -3.000000 20.466713
v 43.365231 -3.000000 5.454045
v 43.365231 -1.000000 5.454045
v 43.365231 -1.000000 4.545955
v 43.365231 -3.000000 4.545955
v 55.962357 -1.000000 -10.466713
v 55.962357 -3.000000 -10.466713
v 50.600044 -1.000000 -14.966226
v 50.600044 -3.000000 -14.966226
v 35.944141 -1.000000 2.500000
v 35.944141 -3.000000 2.500000
v 35.593063 -1.000000 2.500000
v 35.593063 -3.000000 2.500000
v 32.236664 -1.000000 -1.500000
v 32.236664 -3.000000 -1.500000
v 31.537203 -1.000000 -1.500000
v 31.537203 -3.000000 -1.500000
v 31.537203 -1.000000 0.000000
v 31.537203 -3.000000 0.000000
v 34.893600 -1.000000 4.000000
v 34.893600 -3.000000 4.000000
v 36.643600 -1.000000 4.000000
v 36.643600 -3.000000 4.000000
v 50.784927 -1.000000 -12.852978
v 50.784927 -3.000000 -12.852978
v 53.849106 -1.000000 -10.281827
v 53.849106 -3.000000 -10.281827
v 41.865231 -1.000000 4.000000
v 41.865231 -3.000000 4.000000
v 41.865231 -1.000000 6.000000
v 41.865231 -3.000000 6.000000
v 53.849106 -1.000000 20.281828
v 53.849106 -3.000000 20.281828
v 50.784927 -1.000000 22.852978
v 50.784927 -3.000000 22.852978
v 36.643600 -1.000000 6.000000
v 36.643600 -3.000000 6.000000
v 34.893600 -1.000000 6.000000
v 34.893600 -3.000000 6.000000
v -3.356399 -1.000000 6.000000
v -0.000000 -1.000000 10.000000
v -0.000000 -3.000000 10.000000
v -3.356399 -3.000000 6.000000
v -5.106399 -1.000000 6.000000
v -5.106399 -3.000000 6.000000
v -19.247726 -1.000000 22.852978
v -19.247726 -3.000000 22.852978
v -22.311903 -1.000000 20.281828
v -22.311903 -3.000000 20.281828
v -10.328028 -1.000000 6.000000
v -10.328028 -3.000000 6.000000
v -10.328028 -1.000000 4.000000
v -10.328028 -3.000000 4.000000
v -22.311903 -1.000000 -10.281827
v -22.311903 -3.000000 -10.281827
v -19.247726 -1.000000 -12.852978
v -19.247726 -3.000000 -12.852978
v -5.106399 -1.000000 4.000000
v -5.106399 -3.000000 4.000000
v -3.356399 -1.000000 4.000000
v -3.356399 -3.000000 4.000000
v -0.000000 -1.000000 0.000000
v -0.000000 -3.000000 0.000000
v -0.000000 -1.000000 -1.500000
v -0.000000 -3.000000 -1.500000
v -0.699461 -1.000000 -1.500000
v -0.699461 -3.000000 -1.500000
v -4.055860 -1.000000 2.500000
v -4.055860 -3.000000 2.500000
v -4.406937 -1.000000 2.500000
v -4.406937 -3.000000 2.500000
v -19.062841 -1.000000 -14.966226
v -19.062841 -3.000000 -14.966226
v -24.425152 -1.000000 -10.466713
v -24.425152 -3.000000 -10.466713
v -11.828028 -3.000000 4.545955
v -11.828028 -1.000000 4.545955
v -11.828028 -3.000000 5.454045
v -11.828028 -1.000000 5.454045
v -24.425152 -1.000000 20.466713
v -24.425152 -3.000000 20.466713
v -19.062841 -1.000000 24.966227
v -19.062841 -3.000000 24.966227
v -4.406937 -1.000000 7.500000
v -4.406937 -3.000000 7.500000
v -4.055860 -1.000000 7.500000
v -4.055860 -3.000000 7.500000
v -0.699461 -3.000000 11.500000
v -0.699461 -1.000000 11.500000
v -0.000000 -1.000000 11.500000
v -0.000000 -3.000000 11.500000
vn -0.766044 0.000000 -0.642788
vn -0.766044 -0.000000 -0.642788
vn -0.000000 -0.000000 -1.000000
vn -0.000000 -0.000000 -1.000000
vn 0.766044 -0.000000 -0.642788
vn 0.766044 0.000000 -0.642788
vn 0.000000 0.000000 -1.000000
vn 0.000000 0.000000 -1.000000
vn -0.766044 -0.000000 -0.642788
vn -0.766044 0.000000 -0.642788
vn 0.642788 0.000000 -0.766044
vn 0.642788 0.000000 -0.766044
vn 0.766044 0.000000 0.642788
vn 0.766044 0.000000 0.642788
vn 1.000000 0.000000 -0.000000
vn 1.000000 0.000000 0.000000
vn 0.766044 0.000000 -0.642788
vn 0.766044 0.000000 -0.642788
vn 0.642787 0.000000 0.766045
vn 0.642787 0.000000 0.766045
vn -0.766044 0.000000 0.642788
vn -0.766044 0.000000 0.642788
vn 0.000000 0.000000 1.000000
vn 0.000000 0.000000 1.000000
vn 0.766044 0.000000 0.642788
vn 0.766044 0.000000 0.642788
vn 0.000000 0.000000 1.000000
vn 0.000000 0.000000 1.000000
vn -0.766044 0.000000 0.642788
vn -0.766044 0.000000 0.642788
vn 0.000000 0.000000 1.000000
vn 0.000000 0.000000 1.000000
vn 0.766044 0.000000 0.642788
vn 0.766044 0.000000 0.642788
vn -0.642788 0.000000 0.766044
vn -0.642788 0.000000 0.766044
vn -0.766044 -0.000000 -0.642788
vn -0.766044 0.000000 -0.642788
vn -1.000000 0.000000 0.000000
vn -1.000000 -0.000000 0.000000
vn -0.766044 0.000000 0.642788
vn -0.766044 0.000000 0.642788
vn -0.642788 -0.000000 -0.766044
vn -0.642788 0.000000 -0.766044
vn 0.766044 0.000000 -0.642788
vn 0.766044 0.000000 -0.642788
vn 0.000000 0.000000 -1.000000
vn 0.000000 0.000000 -1.000000
vn 0.000000 1.000000 -0.000000
vn 0.000000 1.000000 -0.000000
vn 0.000000 1.000000 -0.000000
vn 0.000000 1.000000 -0.000000
vn 0.000000 1.000000 -0.000000
vn 0.000000 1.000000 -0.000000
vn 0.000000 1.000000 -0.000000
vn 0.000000 1.000000 -0.000000
vn 0.000000 1.000000 -0.000000
vn 0.000000 1.000000 -0.000000
vn 0.000000 1.000000 -0.000000
vn 0.000000 1.000000 -0.000000
vn 0.000000 1.000000 -0.000000
vn 0.000000 1.000000 -0.000000
vn 0.000000 1.000000 -0.000000
vn 0.000000 1.000000 -0.000000
vn 0.000000 1.000000 -0.000000
vn 0.000000 1.000000 -0.000000
vn 0.000000 1.000000 -0.000000
vn 0.000000 1.000000 -0.000000
vn 0.000000 1.000000 -0.000000
vn 0.000000 1.000000 -0.000000
vn 0.000000 -1.000000 0.000000
vn 0.000000 -1.000000 0.000000
vn 0.000000 -1.000000 0.000000
vn 0.000000 -1.000000 0.000000
vn 0.000000 -1.000000 0.000000
vn 0.000000 -1.000000 0.000000
vn 0.000000 -1.000000 0.000000
vn 0.000000 -1.000000 0.000000
vn 0.000000 -1.000000 0.000000
vn -0.000000 -1.000000 0.000000
vn 0.000000 -1.000000 0.000000
vn -0.000000 -1.000000 -0.000000
vn 0.000000 -1.000000 0.000000
vn 0.000000 -1.000000 0.000000
vn -0.000000 -1.000000 0.000000
vn 0.000000 -1.000000 0.000000
vn 0.000000 -1.000000 0.000000
vn 0.000000 -1.000000 0.000000
vn 0.000000 -1.000000 0.000000
vn 0.000000 -1.000000 0.000000
vn 0.000000 -1.000000 0.000000
vn 0.000000 -1.000000 0.000000
vn -1.000000 0.000000 -0.000000
vn -1.000000 -0.000000 0.000000
vn 0.000000 0.000000 1.000000
vn 0.000000 0.000000 1.000000
vn 0.766044 0.000000 0.642788
vn 0.766044 0.000000 0.642788
vn 0.000000 0.000000 1.000000
vn 0.000000 0.000000 1.000000
vn -0.766044 0.000000 0.642788
vn -0.766044 0.000000 0.642788
vn 0.642788 0.000000 0.766044
vn 0.642788 0.000000 0.766044
vn 0.766044 0.000000 -0.642788
vn 0.766044 0.000000 -0.642788
vn 1.000000 0.000000 -0.000000
vn 1.000000 0.000000 0.000000
vn 0.766044 0.000000 0.642788
vn 0.766044 0.000000 0.642788
vn 0.642787 0.000000 -0.766045
vn 0.642787 0.000000 -0.766045
vn -0.766044 0.000000 -0.642788
vn -0.766044 -0.000000 -0.642788
vn 0.000000 0.000000 -1.000000
vn 0.000000 0.000000 -1.000000
vn 0.766044 0.000000 -0.642788
vn 0.766044 0.000000 -0.642788
vn 0.000000 0.000000 -1.000000
vn 0.000000 0.000000 -1.000000
vn -1.000000 -0.000000 -0.000000
vn -1.000000 0.000000 0.000000
vn -0.766044 0.000000 0.642788
vn -0.766044 0.000000 0.642788
vn 0.000000 0.000000 1.000000
vn 0.000000 0.000000 1.000000
vn 0.766044 0.000000 0.642788
vn 0.766044 0.000000 0.642788
vn -0.642788 0.000000 0.766044
vn -0.642788 0.000000 0.766044
vn -0.766044 -0.000000 -0.642788
vn -0.766044 0.000000 -0.642788
vn -1.000000 -0.000000 -0.000000
vn -1.000000 0.000000 0.000000
vn -0.766044 0.000000 0.642788
vn -0.766044 0.000000 0.642788
vn -0.642787 -0.000000 -0.766045
vn -0.642787 0.000000 -0.766045
vn 0.766044 0.000000 -0.642788
vn 0.766044 0.000000 -0.642788
vn 0.000000 0.000000 -1.000000
vn 0.000000 0.000000 -1.000000
vn -0.766044 -0.000000 -0.642788
vn -0.766044 0.000000 -0.642788
vn 0.000000 1.000000 0.000000
vn 0.000000 1.000000 0.000000
vn 0.000000 1.000000 0.000000
vn 0.000000 1.000000 0.000000
vn 0.000000 1.000000 0.000000
vn 0.000000 1.000000 0.000000
vn 0.000000 1.000000 0.000000
vn 0.000000 1.000000 0.000000
vn 0.000000 1.000000 0.000000
vn 0.000000 1.000000 0.000000
vn 0.000000 1.000000 0.000000
vn 0.000000 1.000000 0.000000
vn 0.000000 1.000000 0.000000
vn 0.000000 1.000000 0.000000
vn 0.000000 1.000000 0.000000
vn 0.000000 1.000000 0.000000
vn 0.000000 1.000000 0.000000
vn 0.000000 1.000000 0.000000
vn -0.000000 1.000000 0.000000
vn 0.000000 1.000000 0.000000
vn 0.000000 1.000000 -0.000000
vn 0.000000 1.000000 0.000000
vn 0.000000 1.000000 0.000000
vn -0.000000 1.000000 0.000000
vn 0.000000 -1.000000 0.000000
vn 0.000000 -1.000000 0.000000
vn -0.000000 -1.000000 0.000000
vn 0.000000 -1.000000 0.000000
vn 0.000000 -1.000000 0.000000
vn 0.000000 -1.000000 0.000000
vn 0.000000 -1.000000 0.000000
vn 0.000000 -1.000000 0.000000
vn 0.000000 -1.000000 0.000000
vn 0.000000 -1.000000 0.000000
vn 0.000000 -1.000000 0.000000
vn 0.000000 -1.000000 0.000000
vn 0.000000 -1.000000 0.000000
vn 0.000000 -1.000000 0.000000
vn -0.000000 -1.000000 0.000000
vn 0.000000 -1.000000 0.000000
vn 0.000000 -1.000000 0.000000
vn 0.000000 -1.000000 0.000000
vn 0.000000 -1.000000 0.000000
vn 0.000000 -1.000000 -0.000000
vn 0.000000 -1.000000 0.000000
vn 0.000000 -1.000000 0.000000
vn 0.000000 -1.000000 0.000000
vn 0.000000 -1.000000 0.000000
vn 0.766044 0.000000 -0.642788
vn 0.766044 0.000000 -0.642788
vn 0.000000 0.000000 -1.000000
vn 0.000000 0.000000 -1.000000
vn -0.766044 0.000000 -0.642788
vn -0.766044 -0.000000 -0.642788
vn 0.642788 0.000000 -0.766044
vn 0.642788 0.000000 -0.766044
vn 0.766044 0.000000 0.642788
vn 0.766044 0.000000 0.642788
vn 1.000000 0.000000 -0.000000
vn 1.000000 0.000000 0.000000
vn 0.766044 0.000000 -0.642788
vn 0.766044 0.000000 -0.642788
vn 0.642788 0.000000 0.766044
vn 0.642788 0.000000 0.766044
vn -0.766044 0.000000 0.642788
vn -0.766044 0.000000 0.642788
vn 0.000000 0.000000 1.000000
vn 0.000000 0.000000 1.000000
vn 0.766044 0.000000 0.642788
vn 0.766044 0.000000 0.642788
vn 1.000000 0.000000 0.000000
vn 1.000000 0.000000 0.000000
vn 0.000000 0.000000 -1.000000
vn 0.000000 0.000000 -1.000000
vn -0.766044 0.000000 -0.642788
vn -0.766044 -0.000000 -0.642788
vn 0.000000 0.000000 -1.000000
vn 0.000000 0.000000 -1.000000
vn 0.766044 0.000000 -0.642788
vn 0.766044 0.000000 -0.642788
vn -0.642788 0.000000 -0.766044
vn -0.642788 -0.000000 -0.766044
vn -0.766044 0.000000 0.642788
vn -0.766044 0.000000 0.642788
vn -1.000000 0.000000 0.000000
vn -1.000000 -0.000000 -0.000000
vn -0.766044 0.000000 -0.642788
vn -0.766044 -0.000000 -0.642788
vn -0.642788 0.000000 0.766044
vn -0.642788 0.000000 0.766044
vn 0.766044 0.000000 0.642788
vn 0.766044 0.000000 0.642788
vn 0.000000 0.000000 1.000000
vn 0.000000 0.000000 1.000000
vn -0.766044 0.000000 0.642788
vn -0.766044 0.000000 0.642788
vn 0.000000 0.000000 1.000000
vn 0.000000 0.000000 1.000000
vn 1.000000 0.000000 -0.000000
vn 1.000000 0.000000 0.000000
vn 0.000000 1.000000 0.000000
vn 0.000000 1.000000 0.000000
vn 0.000000 1.000000 0.000000
vn 0.000000 1.000000 0.000000
vn 0.000000 1.000000 0.000000
vn 0.000000 1.000000 0.000000
vn 0.000000 1.000000 0.000000
vn 0.000000 1.000000 0.000000
vn 0.000000 1.000000 0.000000
vn 0.000000 1.000000 0.000000
vn 0.000000 1.000000 0.000000
vn 0.000000 1.000000 0.000000
vn 0.000000 1.000000 0.000000
vn 0.000000 1.000000 0.000000
vn 0.000000 1.000000 0.000000
vn 0.000000 1.000000 0.000000
vn 0.000000 1.000000 0.000000
vn 0.000000 1.000000 0.000000
vn 0.000000 1.000000 -0.000000
vn 0.000000 1.000000 0.000000
vn 0.000000 1.000000 0.000000
vn -0.000000 1.000000 0.000000
vn 0.000000 1.000000 0.000000
vn 0.000000 1.000000 0.000000
vn 0.000000 -1.000000 0.000000
vn 0.000000 -1.000000 0.000000
vn -0.000000 -1.000000 0.000000
vn 0.000000 -1.000000 0.000000
vn 0.000000 -1.000000 0.000000
vn 0.000000 -1.000000 0.000000
vn 0.000000 -1.000000 0.000000
vn 0.000000 -1.000000 0.000000
vn 0.000000 -1.000000 0.000000
vn 0.000000 -1.000000 0.000000
vn 0.000000 -1.000000 0.000000
vn 0.000000 -1.000000 0.000000
vn 0.000000 -1.000000 0.000000
vn 0.000000 -1.000000 0.000000
vn -0.000000 -1.000000 0.000000
vn 0.000000 -1.000000 0.000000
vn -0.000000 -1.000000 0.000000
vn 0.000000 -1.000000 0.000000
vn 0.000000 -1.000000 0.000000
vn -0.000000 -1.000000 0.000000
vn 0.000000 -1.000000 0.000000
vn 0.000000 -1.000000 0.000000
vn 0.000000 -1.000000 -0.000000
vn 0.000000 -1.000000 0.000000
g Extrude
f 1//1 2//1 3//1
f 1//2 3//2 4//2
f 2//3 5//3 3//3
f 3//4 5//4 6//4
f 5//5 7//5 6//5
f 6//6 7//6 8//6
f 7//7 9//7 8//7
f 8//8 9//8 10//8
f 9//9 11//9 10//9
f 9//10 12//10 11//10
f 12//11 13//11 11//11
f 11//12 13//12 14//12
f 13//13 15//13 14//13
f 14//14 15//14 16//14
f 15//15 17//15 18//15
f 15//16 18//16 16//16
f 17//17 19//17 20//17
f 17//18 20//18 18//18
f 19//19 21//19 20//19
f 20//20 21//20 22//20
f 21//21 23//21 22//21
f 21//22 24//22 23//22
f 24//23 25//23 26//23
f 24//24 26//24 23//24
f 25//25 27//25 28//25
f 25//26 28//26 26//26
f 27//27 29//27 30//27
f 27//28 30//28 28//28
f 29//29 31//29 32//29
f 29//30 32//30 30//30
f 31//31 33//31 32//31
f 32//32 33//32 34//32
f 33//33 35//33 34//33
f 33//34 36//34 35//34
f 36//35 37//35 38//35
f 36//36 38//36 35//36
f 37//37 39//37 38//37
f 38//38 39//38 40//38
f 39//39 41//39 42//39
f 39//40 42//40 40//40
f 41//41 43//41 44//41
f 41//42 44//42 42//42
f 43//43 45//43 44//43
f 44//44 45//44 46//44
f 45//45 47//45 48//45
f 45//46 48//46 46//46
f 47//47 1//47 4//47
f 47//48 4//48 48//48
f 41//49 45//49 43//49
f 33//50 41//50 39//50
f 33//51 47//51 41//51
f 31//52 1//52 47//52
f 31//53 47//53 33//53
f 36//54 39//54 37//54
f 29//55 2//55 1//55
f 29//56 1//56 31//56
f 27//57 5//57 2//57
f 27//58 7//58 5//58
f 27//59 2//59 29//59
f 27//60 25//60 7//60
f 24//61 9//61 7//61
f 24//62 7//62 25//62
f 15//63 13//63 12//63
f 17//64 9//64 24//64
f 17//65 15//65 9//65
f 19//66 17//66 21//66
f 12//67 9//67 15//67
f 24//68 21//68 17//68
f 36//69 33//69 39//69
f 47//70 45//70 41//70
f 46//71 42//71 44//71
f 42//72 34//72 40//72
f 48//73 34//73 42//73
f 4//74 32//74 48//74
f 48//75 32//75 34//75
f 40//76 35//76 38//76
f 3//77 30//77 4//77
f 4//78 30//78 32//78
f 6//79 28//79 3//79
f 8//80 28//80 6//80
f 3//81 28//81 30//81
f 26//82 28//82 8//82
f 10//83 23//83 8//83
f 8//84 23//84 26//84
f 14//85 16//85 11//85
f 10//86 18//86 23//86
f 16//87 18//87 10//87
f 18//88 20//88 22//88
f 10//89 11//89 16//89
f 22//90 23//90 18//90
f 34//91 35//91 40//91
f 46//92 48//92 42//92
g Extrude002
f 49//93 50//93 51//93
f 49//94 51//94 52//94
f 53//95 49//95 52//95
f 53//96 52//96 54//96
f 55//97 53//97 54//97
f 55//98 54//98 56//98
f 57//99 55//99 56//99
f 57//100 56//100 58//100
f 59//101 57//101 58//101
f 59//102 58//102 60//102
f 61//103 59//103 60//103
f 61//104 60//104 62//104
f 63//105 61//105 62//105
f 64//106 61//106 63//106
f 65//107 64//107 63//107
f 65//108 63//108 66//108
f 67//109 65//109 66//109
f 67//110 66//110 68//110
f 69//111 67//111 68//111
f 69//112 68//112 70//112
f 71//113 69//113 70//113
f 71//114 70//114 72//114
f 73//115 71//115 72//115
f 73//116 72//116 74//116
f 75//117 73//117 74//117
f 75//118 74//118 76//118
f 77//119 75//119 78//119
f 78//120 75//120 76//120
f 79//121 77//121 80//121
f 80//122 77//122 78//122
f 81//123 79//123 82//123
f 82//124 79//124 80//124
f 83//125 81//125 84//125
f 84//126 81//126 82//126
f 85//127 83//127 86//127
f 86//128 83//128 84//128
f 87//129 85//129 88//129
f 88//130 85//130 86//130
f 89//131 88//131 90//131
f 89//132 87//132 88//132
f 91//133 89//133 92//133
f 92//134 89//134 90//134
f 93//135 92//135 94//135
f 93//136 91//136 92//136
f 95//137 93//137 96//137
f 96//138 93//138 94//138
f 97//139 95//139 98//139
f 98//140 95//140 96//140
f 99//141 97//141 98//141
f 99//142 98//142 100//142
f 50//143 99//143 51//143
f 51//144 99//144 100//144
f 79//145 75//145 77//145
f 73//146 75//146 79//146
f 81//147 73//147 79//147
f 83//148 71//148 73//148
f 83//149 73//149 81//149
f 55//150 97//150 99//150
f 55//151 99//151 50//151
f 57//152 97//152 55//152
f 87//153 69//153 85//153
f 53//154 50//154 49//154
f 53//155 55//155 50//155
f 67//156 69//156 87//156
f 65//157 67//157 87//157
f 64//158 89//158 91//158
f 64//159 65//159 89//159
f 61//160 93//160 95//160
f 61//161 64//161 93//161
f 61//162 95//162 59//162
f 57//163 59//163 97//163
f 97//164 59//164 95//164
f 69//165 71//165 85//165
f 83//166 85//166 71//166
f 87//167 89//167 65//167
f 91//168 93//168 64//168
f 76//169 80//169 78//169
f 76//170 74//170 80//170
f 74//171 82//171 80//171
f 72//172 84//172 74//172
f 74//173 84//173 82//173
f 98//174 56//174 100//174
f 100//175 56//175 51//175
f 98//176 58//176 56//176
f 70//177 88//177 86//177
f 51//178 54//178 52//178
f 56//179 54//179 51//179
f 70//180 68//180 88//180
f 68//181 66//181 88//181
f 90//182 63//182 92//182
f 66//183 63//183 90//183
f 94//184 62//184 96//184
f 63//185 62//185 94//185
f 96//186 62//186 60//186
f 60//187 58//187 98//187
f 60//188 98//188 96//188
f 72//189 70//189 86//189
f 86//190 84//190 72//190
f 90//191 88//191 66//191
f 94//192 92//192 63//192
g Extrude001
f 101//193 102//193 103//193
f 101//194 103//194 104//194
f 105//195 101//195 104//195
f 105//196 104//196 106//196
f 107//197 105//197 106//197
f 107//198 106//198 108//198
f 109//199 107//199 108//199
f 109//200 108//200 110//200
f 111//201 109//201 110//201
f 111//202 110//202 112//202
f 113//203 111//203 112//203
f 113//204 112//204 114//204
f 115//205 113//205 114//205
f 115//206 114//206 116//206
f 117//207 115//207 116//207
f 117//208 116//208 118//208
f 119//209 117//209 118//209
f 119//210 118//210 120//210
f 121//211 119//211 120//211
f 121//212 120//212 122//212
f 123//213 121//213 122//213
f 123//214 122//214 124//214
f 125//215 123//215 124//215
f 125//216 124//216 126//216
f 127//217 125//217 126//217
f 127//218 126//218 128//218
f 129//219 127//219 128//219
f 129//220 128//220 130//220
f 131//221 129//221 130//221
f 131//222 130//222 132//222
f 133//223 131//223 132//223
f 133//224 132//224 134//224
f 135//225 133//225 134//225
f 135//226 134//226 136//226
f 137//227 135//227 136//227
f 138//228 135//228 137//228
f 138//229 137//229 139//229
f 140//230 138//230 139//230
f 141//231 140//231 139//231
f 141//232 139//232 142//232
f 143//233 141//233 142//233
f 143//234 142//234 144//234
f 145//235 143//235 144//235
f 145//236 144//236 146//236
f 147//237 145//237 146//237
f 147//238 146//238 148//238
f 149//239 147//239 148//239
f 150//240 147//240 149//240
f 151//241 150//241 149//241
f 151//242 149//242 152//242
f 102//243 151//243 103//243
f 103//244 151//244 152//244
f 115//245 133//245 135//245
f 117//246 133//246 115//246
f 138//247 115//247 135//247
f 113//248 138//248 140//248
f 111//249 113//249 140//249
f 109//250 140//250 141//250
f 119//251 129//251 131//251
f 123//252 125//252 127//252
f 123//253 127//253 129//253
f 121//254 129//254 119//254
f 121//255 123//255 129//255
f 147//256 101//256 105//256
f 147//257 105//257 145//257
f 107//258 109//258 141//258
f 143//259 107//259 141//259
f 102//260 101//260 147//260
f 150//261 102//261 147//261
f 151//262 102//262 150//262
f 105//263 107//263 145//263
f 109//264 111//264 140//264
f 113//265 115//265 138//265
f 117//266 119//266 133//266
f 133//267 119//267 131//267
f 143//268 145//268 107//268
f 134//269 116//269 136//269
f 134//270 118//270 116//270
f 116//271 137//271 136//271
f 137//272 114//272 139//272
f 114//273 112//273 139//273
f 139//274 110//274 142//274
f 130//275 120//275 132//275
f 126//276 124//276 128//276
f 128//277 124//277 130//277
f 130//278 122//278 120//278
f 124//279 122//279 130//279
f 104//280 148//280 106//280
f 106//281 148//281 146//281
f 110//282 108//282 142//282
f 108//283 144//283 142//283
f 104//284 103//284 148//284
f 103//285 149//285 148//285
f 103//286 152//286 149//286
f 108//287 106//287 146//287
f 112//288 110//288 139//288
f 116//289 114//289 137//289
f 120//290 118//290 134//290
f 120//291 134//291 132//291
f 146//292 144//292 108//292
